<svg xmlns="http://www.w3.org/2000/svg"  viewBox="0 0 24 24" width="48px" height="48px" baseProfile="basic"><linearGradient id="23d01bYjaQJ_CNH-5vLOla" x1="8.35" x2="21.193" y1="4.78" y2="17.622" gradientUnits="userSpaceOnUse"><stop offset="0" stop-color="#fff" stop-opacity=".6"/><stop offset="1" stop-color="#fff" stop-opacity=".3"/></linearGradient><path fill="url(#23d01bYjaQJ_CNH-5vLOla)" d="M2.926,13.098l3.085,1.209c0.326,0.128,0.578,0.395,0.688,0.727l1.287,3.918 c0.274,0.835,1.301,1.134,1.98,0.576l2.228-1.829c0.282-0.232,0.692-0.22,0.961,0.028l2.851,2.63 c1.035,0.955,2.716,0.408,2.991-0.973l2.979-14.961c0.186-0.935-0.747-1.698-1.627-1.33l-17.454,7.3 C1.687,10.9,1.706,12.62,2.926,13.098z"/><linearGradient id="23d01bYjaQJ_CNH-5vLOlb" x1="8.35" x2="21.193" y1="4.78" y2="17.623" gradientUnits="userSpaceOnUse"><stop offset="0" stop-color="#fff" stop-opacity=".6"/><stop offset=".493" stop-color="#fff" stop-opacity="0"/><stop offset=".997" stop-color="#fff" stop-opacity=".3"/></linearGradient><path fill="url(#23d01bYjaQJ_CNH-5vLOlb)" d="M20.811,3.5 c0.202,0,0.402,0.096,0.534,0.258c0.076,0.093,0.195,0.29,0.14,0.569l-2.979,14.961c-0.144,0.721-0.767,1.05-1.286,1.05 c-0.228,0-0.565-0.06-0.876-0.347l-2.851-2.63c-0.228-0.211-0.525-0.327-0.836-0.327c-0.284,0-0.562,0.099-0.782,0.28l-2.228,1.829 c-0.172,0.141-0.352,0.171-0.472,0.171c-0.272,0-0.599-0.16-0.716-0.517l-1.287-3.918c-0.156-0.476-0.514-0.854-0.98-1.037 l-3.085-1.209c-0.376-0.148-0.604-0.477-0.609-0.881s0.215-0.739,0.588-0.895l17.454-7.3C20.631,3.519,20.721,3.5,20.811,3.5 M20.811,3c-0.151,0-0.308,0.03-0.462,0.094l-17.454,7.3C1.687,10.9,1.706,12.62,2.926,13.098l3.085,1.209 c0.326,0.128,0.578,0.395,0.688,0.727l1.287,3.918c0.179,0.544,0.677,0.86,1.191,0.86c0.274,0,0.553-0.09,0.789-0.284l2.228-1.829 c0.135-0.111,0.3-0.166,0.464-0.166c0.179,0,0.357,0.065,0.497,0.194l2.851,2.63c0.356,0.329,0.789,0.479,1.215,0.479 c0.811,0,1.596-0.547,1.776-1.452l2.979-14.961C22.13,3.654,21.522,3,20.811,3L20.811,3z"/><linearGradient id="23d01bYjaQJ_CNH-5vLOlc" x1="10.746" x2="14.609" y1="10.365" y2="14.228" gradientUnits="userSpaceOnUse"><stop offset="0" stop-color="#fff" stop-opacity=".7"/><stop offset=".519" stop-color="#fff" stop-opacity=".45"/><stop offset="1" stop-color="#fff" stop-opacity=".55"/></linearGradient><path fill="url(#23d01bYjaQJ_CNH-5vLOlc)" d="M11.458,16.271l6.99-9.163	c0.328-0.43-0.211-0.982-0.648-0.665L6.467,14.645c0.098,0.115,0.184,0.242,0.232,0.389l1.287,3.918	c0.126,0.383,0.413,0.647,0.75,0.773C9.639,19.981,11.458,16.271,11.458,16.271z"/></svg>